<?xml version="1.0" encoding="UTF-8"?>
<svg width="234px" height="155px" viewBox="0 0 234 155" version="1.1" xmlns="http://www.w3.org/2000/svg" xmlns:xlink="http://www.w3.org/1999/xlink">
    <!-- Generator: Sketch 55.2 (78181) - https://sketchapp.com -->
    <title>编组 4</title>
    <desc>Created with Sketch.</desc>
    <g id="页面1" stroke="none" stroke-width="1" fill="none" fill-rule="evenodd">
        <g id="编组-4" fill-rule="nonzero">
            <g id="编组-7">
                <path d="M120.43925,28.4354056 C105.727991,30.8977644 90.9940675,29.572515 76.8102707,27.7366001 C62.6264739,25.9006852 48.4756436,23.5561722 33.7334783,24.0151509 C24.2556362,24.3128668 13.712567,26.1818613 7.15431237,31.917028 C0.845366167,37.4351102 -0.0570892337,44.9793147 0.00266237958,51.8019715 C0.0479911897,56.9334364 0.528064497,62.2489064 3.99159767,66.37558 C6.396085,69.2390284 10.0718394,71.318905 12.8513196,73.9673364 C22.5352018,83.1841255 19.788688,97.4620856 13.6569362,109.55266 C10.7723756,115.225803 7.24703039,120.793505 5.31231436,126.609303 C3.37759833,132.425101 3.18598109,138.68954 6.8287691,143.504682 C10.4427115,148.278474 17.355355,151.028212 24.548213,152.502319 C39.1543919,155.493951 55.3656227,153.949549 71.0452702,151.801446 C105.750656,147.023519 140.068686,139.295309 174.287816,131.581572 C186.953098,128.728461 199.67401,125.85881 211.859219,121.657708 C218.625574,119.329735 225.509372,116.400127 229.842394,111.766923 C235.341603,105.884966 235.391052,97.7660039 229.957776,92.8412862 C220.842565,84.5713991 200.450781,86.1261379 193.365064,76.7150064 C189.462666,71.5463269 191.051235,64.5954868 194.032634,58.4861077 C200.419875,45.3783367 212.936808,32.5083249 211.133958,19.3364623 C209.897718,10.2892058 201.16574,2.71398925 189.565686,0.619640344 C177.409323,-1.57394721 161.871843,2.08961277 154.996287,11.0851824 C147.916751,20.3722656 133.428015,26.2645602 120.43925,28.4354056 Z" id="路径" fill="#6C63FF" opacity="0.1"></path>
                <g id="编组-13" transform="translate(36.636364, 10.673077)">
                    <g id="编组-17">
                        <g id="编组-16">
                            <path d="M98.2845403,140.218125 L98.2845403,141.775104 L52.988187,141.775104 L52.988187,140.508814 C58.6372668,138.381337 62.4679627,133.002516 62.6922651,126.88296 C62.9165675,120.763404 59.4902499,115.109731 54.0125748,112.56084 L97.9770281,112.56084 C93.8849658,114.471499 90.8614796,118.159598 89.7505867,122.59559 C88.2442496,128.632311 90.5303301,134.990652 95.5110544,138.617343 C96.3765756,139.250219 97.3063909,139.786884 98.2845403,140.218125 L98.2845403,140.218125 Z" id="路径" fill="#D2D4DE"></path>
                            <path d="M98.2845403,111.701597 C94.1476885,113.664839 91.0911087,117.454438 89.9680565,122.012513 L62.1593189,122.012513 C61.0362667,117.454438 57.979687,113.664839 53.8428351,111.701597 L98.2845403,111.701597 Z" id="路径" fill="#000000" opacity="0.1"></path>
                            <path d="M0,103.968409 L0,112.559861 C0,117.30679 3.53269731,121.15327 7.89181478,121.15327 L143.380912,121.15327 C147.74003,121.15327 151.272727,117.30679 151.272727,112.559861 L151.272727,103.968409 L0,103.968409 Z" id="路径" fill="#D2D4DE"></path>
                            <path d="M98.2845403,139.644874 L98.2845403,140.915861 L52.988187,140.915861 L52.988187,139.882168 C54.2308463,139.49934 55.4060675,138.980039 56.4824659,138.338131 L95.507137,138.338131 C96.373894,138.85496 97.3050341,139.293053 98.2845403,139.644874 L98.2845403,139.644874 Z" id="路径" fill="#000000" opacity="0.1"></path>
                            <rect id="矩形" fill="#D2D4DE" x="37.6045198" y="139.197374" width="76.9183359" height="4.29621526" rx="2.14810763"></rect>
                            <path d="M151.272727,7.91468408 C151.272727,3.54352476 147.739441,0 143.380912,0 L7.89181478,0 C3.53328583,0 0,3.54352476 0,7.91468408 L0,105.686895 L151.272727,105.686895 L151.272727,7.91468408 Z" id="路径" fill="#30374E"></path>
                            <path d="M146.999486,11.6044538 L146.999486,94.9476278 C146.999486,97.0823866 145.263589,98.812951 143.122253,98.812951 L8.15047701,98.812951 C7.12200964,98.812951 6.13551407,98.4064071 5.40827772,97.6814045 C4.68104137,96.9564018 4.27324088,95.9729362 4.27324088,94.9476278 L4.27324088,11.6044538 C4.27166269,10.5782771 4.67945671,9.5935895 5.40675029,8.86741487 C6.13404388,8.14124023 7.12113747,7.73318747 8.15047701,7.73318747 L143.122253,7.73318747 C144.15143,7.73318747 145.138217,8.14193535 145.865396,8.86799572 C146.592575,9.59405609 146.999486,10.5784379 146.999486,11.6044538 Z" id="路径" fill="#DFE3EF"></path>
                            <ellipse id="椭圆形" fill="#FFFFFF" cx="76.9183359" cy="113.420083" rx="4.27324088" ry="4.29621526"></ellipse>
                            <rect id="矩形" fill="#FFFFFF" x="18.8022599" y="21.4810763" width="113.668207" height="67.0209581"></rect>
                            <rect id="矩形" fill="#DFE3EF" x="29.9126862" y="58.4285276" width="33.3312789" height="24.9180485"></rect>
                            <path d="M49.9295365,67.5323524 C46.2972234,66.3360776 42.282698,66.88848 39.1529472,69.0152209 C36.0231965,71.1419619 34.1643411,74.5806631 34.1630373,78.246068 C34.1630373,78.6902666 33.7855223,79.0503608 33.319834,79.0503608 C32.8541457,79.0503608 32.4766307,78.6902666 32.4766307,78.246068 C32.4784627,74.0705939 34.5910414,70.1521807 38.1506435,67.7219034 C41.7102455,65.291626 46.2800174,64.6477411 50.4242424,65.9925424" id="路径" fill="#536DFE"></path>
                            <path d="M50.0497595,66.161715 C55.3808881,67.9318359 58.9647224,72.7906897 58.9707242,78.2564881 C58.9707242,78.6949319 58.6043054,79.0503608 58.1523049,79.0503608 C57.7003044,79.0503608 57.3338856,78.6949319 57.3338856,78.2564881 C57.3280653,73.488403 54.2130702,69.2458007 49.5695942,67.6815758" id="路径" fill="#FFFFFF"></path>
                            <path d="M47.3343606,73.0356595 L47.3210857,73.0356595 C46.8476706,73.037147 46.4072995,73.247589 46.1510015,73.5948126 C45.8947036,73.247589 45.4543325,73.037147 44.9809174,73.0356595 L44.9676425,73.0356595 C44.2033293,73.0411098 43.587057,73.5831575 43.587057,74.2499151 C43.6173628,74.7662294 43.8226207,75.2630877 44.1768401,75.6775754 C44.9183359,76.5626255 46.1510015,77.3318747 46.1510015,77.3318747 C46.1510015,77.3318747 47.3836672,76.5576626 48.125163,75.6775754 C48.4793824,75.2630877 48.6846403,74.7662294 48.7149461,74.2499151 C48.7149461,73.5831575 48.0986738,73.0411098 47.3343606,73.0356595 L47.3343606,73.0356595 Z" id="路径" fill="#536DFE"></path>
                            <g id="编组" transform="translate(72.645095, 48.117611)">
                                <rect id="矩形" fill="#DFE3EF" x="0" y="0" width="51.2788906" height="37.8066943"></rect>
                                <rect id="矩形" fill="#FFFFFF" x="5.12788906" y="28.3550207" width="1.70929635" height="6.87394442"></rect>
                                <rect id="矩形" fill="#FFFFFF" x="8.54648177" y="20.6218333" width="1.70929635" height="14.6071319"></rect>
                                <rect id="矩形" fill="#DFE3EF" x="11.9650745" y="12.0294027" width="1.70929635" height="23.1995624"></rect>
                                <rect id="矩形" fill="#FFFFFF" x="15.3836672" y="6.87394442" width="1.70929635" height="28.3550207"></rect>
                                <rect id="矩形" fill="#536DFE" x="11.9650745" y="6.87394442" width="1.70929635" height="28.3550207"></rect>
                                <rect id="矩形" fill="#536DFE" x="20.5115562" y="19.7625902" width="1.70929635" height="15.4663749"></rect>
                                <rect id="矩形" fill="#FFFFFF" x="24.7847971" y="14.6071319" width="1.70929635" height="20.6218333"></rect>
                                <rect id="矩形" fill="#FFFFFF" x="28.2033898" y="8.59243052" width="1.70929635" height="26.6365346"></rect>
                                <rect id="矩形" fill="#536DFE" opacity="0.2" x="33.3312789" y="24.0588055" width="1.70929635" height="11.1701597"></rect>
                                <rect id="矩形" fill="#536DFE" opacity="0.2" x="36.7498716" y="18.0441041" width="1.70929635" height="17.184861"></rect>
                                <rect id="矩形" fill="#536DFE" opacity="0.2" x="40.1684643" y="12.0294027" width="1.70929635" height="23.1995624"></rect>
                                <rect id="矩形" fill="#536DFE" opacity="0.2" x="44.4417052" y="12.0294027" width="1.70929635" height="23.1995624"></rect>
                            </g>
                        </g>
                        <g id="编组-21" transform="translate(32.476631, 26.636535)">
                            <g id="编组-22">
                                <path d="M24.2041474,21.8304647 C27.9099665,18.2525467 29.0185549,12.8716503 27.0129799,8.19687684 C25.0074048,3.52210341 20.2826297,0.474065132 15.0418079,0.474065132 L15.0418079,12.9843565 L24.2041474,21.8304647 Z" id="路径" fill="#DFE3EF"></path>
                                <path d="M12.9578819,0.474065132 C7.03361899,0.474758712 1.86421635,4.42411698 0.402078332,10.0665403 C-1.06005969,15.7089637 1.55743732,21.6074664 6.75963656,24.3932326 L12.9578819,13.2082576 L12.9578819,0.474065132 Z" id="路径" fill="#4A61E4"></path>
                                <path d="M23.3241874,23.2824724 L14.0494342,14.221954 L7.77472913,25.4765998 C12.8830079,28.1916772 19.2111916,27.2987302 23.3241874,23.2824724 L23.3241874,23.2824724 Z" id="路径" fill="#B5B1FF" opacity="0.512137277"></path>
                            </g>
                        </g>
                        <ellipse id="椭圆形" fill="#FFFFFF" cx="76.9183359" cy="3.43697221" rx="1.70929635" ry="1.7184861"></ellipse>
                        <path d="M146.999486,11.1701597 L4.27324088,11.1701597 C4.27113708,10.2589608 4.67876662,9.38446749 5.406185,8.73965643 C6.13360338,8.09484537 7.12101829,7.73271873 8.15053431,7.73318747 L143.122193,7.73318747 C144.151709,7.73271873 145.139124,8.09484537 145.866542,8.73965643 C146.593961,9.38446749 147.00159,10.2589608 146.999486,11.1701597 Z" id="路径" fill="#FFFFFF"></path>
                        <ellipse id="椭圆形" fill="#DFE3EF" cx="8.54648177" cy="9.45167358" rx="1" ry="1"></ellipse>
                        <ellipse id="椭圆形" fill="#DFE3EF" cx="11.9650745" cy="9.45167358" rx="1" ry="1"></ellipse>
                        <ellipse id="椭圆形" fill="#DFE3EF" cx="14.529019" cy="9.45167358" rx="1" ry="1"></ellipse>
                    </g>
                    <g id="编组-20" transform="translate(73.272727, 28.461538)">
                        <rect id="矩形" fill="#DCE0ED" opacity="0.5" x="0" y="0" width="50.8181818" height="1"></rect>
                        <rect id="矩形" fill="#DCE0ED" opacity="0.5" x="0" y="3.49527665" width="50.8181818" height="1"></rect>
                        <rect id="矩形" fill="#DCE0ED" opacity="0.5" x="0" y="7.86437247" width="50.8181818" height="1"></rect>
                        <rect id="矩形" fill="#DCE0ED" opacity="0.5" x="0" y="12.2334683" width="50.8181818" height="1"></rect>
                        <polygon id="路径" fill="#6C63FF" opacity="0.5" points="50.8181818 16.6025641 0 16.6025641 0 8.59386026 4.66146856 10.9693751 9.48445852 11.6457652 13.7165165 10.3266007 18.8221689 6.23056938 21.3907533 4.69646763 23.2679473 4.32261946 25.0643806 4.42244813 28.0190406 5.93108338 32.0344235 8.57654305 35.1850759 8.99623091 37.6847182 8.10490353 42.9804538 3.61770684 45.6849526 2.62145749 48.5145319 3.07374247 50.8181818 4.44995194"></polygon>
                        <path d="M8.84624087,11.3592092 C4.27558473,11.3592092 0.0531128538,8.56476936 0,8.52937181 L0.125897135,8.34156814 C0.190812845,8.38483182 6.69221958,12.6846508 12.2149728,10.5303166 C14.2283434,9.74370439 15.663374,8.52445548 17.0502096,7.34257065 C18.4980267,6.10955603 19.8661745,4.9443867 21.7300422,4.43898837 C23.8693099,3.85984513 26.2062755,4.38392551 27.9816218,5.84309114 C29.4992724,7.08987148 32.5227708,9.08786647 35.7154435,8.49790732 C37.3442377,8.19211183 38.7163197,7.00334414 40.1690546,5.74476462 C42.9496109,3.32789863 45.8334421,0.833354692 50.8181818,4.4124402 L50.6844161,4.59729407 C45.8472121,1.12145749 43.0351816,3.55699944 40.3165903,5.91290298 C38.8412333,7.1911478 37.4455455,8.39958079 35.757737,8.71619221 C32.4726087,9.33269952 29.3861617,7.29045759 27.8380204,6.01811236 C26.1187377,4.60614346 23.8575071,4.09779532 21.7900401,4.65825652 C19.9743673,5.14988914 18.6249074,6.29932622 17.1967618,7.51562533 C15.7951726,8.70930935 14.3444048,9.94330724 12.2975928,10.7417186 C11.1957936,11.1611474 10.0251649,11.3705877 8.84624087,11.3592092 L8.84624087,11.3592092 Z" id="路径" fill="#6C63FF"></path>
                        <ellipse id="椭圆形" fill="#6C63FF" cx="23.6864407" cy="3.93218623" rx="1.29198767" ry="1.31072874"></ellipse>
                    </g>
                </g>
            </g>
        </g>
    </g>
</svg>