<?xml version="1.0" encoding="UTF-8"?>
<svg width="234px" height="154px" viewBox="0 0 234 154" version="1.1" xmlns="http://www.w3.org/2000/svg" xmlns:xlink="http://www.w3.org/1999/xlink">
    <!-- Generator: Sketch 55.2 (78181) - https://sketchapp.com -->
    <title>编组 14</title>
    <desc>Created with Sketch.</desc>
    <g id="页面1" stroke="none" stroke-width="1" fill="none" fill-rule="evenodd">
        <g id="编组-14" fill-rule="nonzero">
            <path d="M120.43925,28.4046646 C105.727991,30.8643614 90.9940675,29.5405447 76.8102707,27.7066146 C62.6264739,25.8726844 48.4756436,23.530706 33.7334783,23.9891886 C24.2556362,24.2865827 13.712567,26.1535566 7.15431237,31.8825231 C0.845366167,37.3946398 -0.0570892337,44.9306884 0.00266237958,51.7459694 C0.0479911897,56.8718868 0.528064497,62.1816103 3.99159767,66.3038226 C6.396085,69.1641754 10.0718394,71.2418035 12.8513196,73.8873717 C22.5352018,83.0941967 19.788688,97.3567212 13.6569362,109.434225 C10.7723756,115.101235 7.24703039,120.662917 5.31231436,126.472428 C3.37759833,132.281938 3.18598109,138.539606 6.8287691,143.349542 C10.4427115,148.118173 17.355355,150.864938 24.548213,152.337452 C39.1543919,155.325849 55.3656227,153.783117 71.0452702,151.637336 C105.750656,146.864575 140.068686,139.14472 174.287816,131.439322 C186.953098,128.589295 199.67401,125.722747 211.859219,121.526186 C218.625574,119.200729 225.509372,116.274289 229.842394,111.646094 C235.341603,105.770495 235.391052,97.660311 229.957776,92.7409172 C220.842565,84.4799705 200.450781,86.0330285 193.365064,76.6320712 C189.462666,71.4689795 191.051235,64.5256539 194.032634,58.4228795 C200.419875,45.3292791 212.936808,32.4731808 211.133958,19.315558 C209.897718,10.2780824 201.16574,2.71105521 189.565686,0.618970462 C177.409323,-1.57224564 161.871843,2.08735373 154.996287,11.0731985 C147.916751,20.3502416 133.428015,26.2361661 120.43925,28.4046646 Z" id="路径" fill="#6C63FF" opacity="0.1"></path>
            <g id="编组-11" transform="translate(1.004292, 18.000000)">
                <path d="M144.491674,96.7624143 C144.494457,110.296148 136.797191,122.635919 124.685977,128.513662 C124.682879,128.513662 124.682879,128.513662 124.679781,128.51678 C123.615858,129.033905 122.525947,129.495006 121.414459,129.898218 C121.237871,129.966822 121.058185,130.02919 120.875402,130.088439 C120.503638,130.222529 120.125663,130.344145 119.744621,130.459525 C118.96082,130.702758 118.165659,130.917925 117.359139,131.105028 L117.356041,131.105028 L117.334355,131.111264 L117.284786,131.12062 C117.179453,131.145567 117.071022,131.170513 116.962591,131.192342 C116.361574,131.326432 115.75436,131.441812 115.140951,131.538481 C113.270949,131.847398 111.378968,132.001752 109.48395,132.000015 C108.467797,132.000015 107.45784,131.956343 106.463372,131.869028 C106.409421,131.866937 106.355634,131.861731 106.302275,131.853437 C103.575359,131.605089 100.886621,131.036809 98.2907729,130.160161 C97.9066174,130.02919 97.5224618,129.891982 97.1445023,129.745418 C80.5667088,123.462594 71.2630401,105.706174 75.4743853,88.3871421 C79.6857304,71.06811 96.0850107,59.6440373 113.67161,61.7781773 C131.258209,63.9123174 144.49024,78.9321601 144.491674,96.7624143 L144.491674,96.7624143 Z" id="路径" fill="#DAD6FF"></path>
                <path d="M105.324494,97.1577364 C105.324494,97.1577364 113.53549,93.5563741 117.39217,97.3606706 C121.24885,101.164967 107.066221,99.9127044 105.324494,97.1577364 Z" id="路径" fill="#3F3D56"></path>
                <path d="M119.502718,80.0780973 C116.743366,75.3850309 111.284205,75.1663116 111.284205,75.1663116 C111.284205,75.1663116 105.964581,74.4815767 102.552049,81.6291748 C99.3713033,88.2913237 94.9814897,94.7237641 101.845324,96.2833329 L103.085133,92.3991593 L103.852939,96.5725056 C104.830217,96.6432568 105.81061,96.6601212 106.789719,96.6230232 C114.140328,96.384156 121.140676,96.6929152 120.915276,94.0378941 C120.615641,90.5083946 122.157765,84.5937659 119.502718,80.0780973 Z" id="路径" fill="#2F2E41"></path>
                <path d="M106.692995,90.2703102 C106.692995,90.2703102 107.937083,98.5352204 105.448904,99.5370281 C102.960726,100.538836 110.425268,104.796515 110.425268,104.796515 L114.655173,104.796515 L117.392173,99.0361242 C117.392173,99.0361242 114.903992,94.5279928 116.396901,90.2703102 C117.88981,86.0126275 106.692995,90.2703102 106.692995,90.2703102 Z" id="路径" fill="#A0616A"></path>
                <path d="M120.875402,130.088439 L120.875402,100.788231 C120.875402,100.788231 120.559403,97.7790031 118.053097,98.5617141 C117.796882,98.6441484 117.548134,98.7484737 117.309571,98.8735511 C116.894587,99.099246 116.498767,99.358948 116.126124,99.6500253 C115.983614,99.7591683 115.838007,99.8776664 115.686204,100.00552 C115.673811,100.014875 115.661419,100.027348 115.649027,100.036703 C110.921436,104.043809 108.684659,101.290288 108.185876,100.788231 C108.003093,100.607365 107.525996,100.092834 106.990037,99.512817 L106.990037,99.5096987 C106.757685,99.260229 106.516039,98.9982859 106.286785,98.7425796 C105.577336,97.9723421 104.951534,97.2831822 104.951534,97.2831822 L102.463817,99.285176 L103.071031,114.465403 L103.21354,118.045292 L103.21354,118.048411 L103.260011,119.161669 L103.260011,119.167906 L103.647264,128.878511 L103.706127,130.344145 C104.548326,130.613707 105.403422,130.840593 106.268197,131.02395 C106.522235,131.076962 106.791763,131.129975 107.067488,131.179869 C109.223716,131.572783 111.937589,131.775477 113.660093,130.843085 C114.008051,130.655229 114.373255,130.501713 114.750599,130.384684 C115.499874,130.158128 116.279496,130.049779 117.061728,130.063492 C117.229022,130.06661 117.393217,130.072847 117.557413,130.082202 L117.560511,130.082202 C118.299169,130.134829 119.030802,130.261224 119.744621,130.459525 L120.875402,130.088439 Z" id="路径" fill="#3F3D56"></path>
                <path d="M108.941795,129.165401 C108.378791,129.892525 107.751454,130.566774 107.067488,131.179869 C106.856822,131.373208 106.646156,131.56031 106.432392,131.744294 C106.38902,131.781714 106.345647,131.816016 106.302275,131.853437 C103.575359,131.605089 100.886621,131.036809 98.2907729,130.160161 C97.9066174,130.02919 97.5224618,129.891982 97.1445023,129.745418 C97.3836821,129.135636 97.5712633,128.506607 97.7052455,127.865041 C99.4184553,119.782225 94.4368253,107.514556 94.0031013,105.546864 C93.8451018,104.838994 94.4275312,103.856707 95.3600193,102.812053 C97.3954241,100.538761 101.097568,97.9692237 102.463799,97.2831822 C103.499705,96.8166341 104.660103,96.7091545 105.763199,96.9775819 L105.766297,96.9775819 C106.112321,97.0489943 106.451344,97.1512646 106.779353,97.2831822 L106.779353,97.2863006 C106.782451,97.3330761 106.816529,97.6885704 106.875392,98.2966526 C106.906372,98.6303182 106.943548,99.0357064 106.990019,99.5096987 L106.990019,99.512817 C107.073665,100.398434 107.178998,101.502337 107.30292,102.762159 L107.30292,102.765277 C108.049544,110.526901 109.400285,124.035682 109.92695,126.333921 C110.122144,127.185236 109.688411,128.170641 108.941795,129.165401 Z" id="路径" fill="#D0CDE1"></path>
                <path d="M120.875402,130.088439 C121.058185,130.02919 121.237871,129.966822 121.414459,129.898218 C122.525948,129.495011 123.61586,129.033909 124.679781,128.51678 C123.087394,123.832988 127.793299,108.942769 129.140942,104.333818 L129.140942,104.327581 C129.298941,103.788103 129.41047,103.388951 129.460039,103.167547 C129.958821,100.912965 122.368651,98.7862367 122.120809,98.2841791 C121.928731,97.9037379 118.846193,97.5201784 117.393217,97.3611415 C116.944003,97.3112475 116.64969,97.2831822 116.64969,97.2831822 C116.265535,97.5825458 115.971222,98.443216 115.741968,99.6936825 C115.720282,99.7934704 115.701694,99.899495 115.686204,100.00552 C115.522008,100.972214 115.394989,102.141603 115.292754,103.454437 C114.728913,110.614216 114.920991,121.927664 114.406718,126.586509 C114.302589,127.548898 114.345425,128.52166 114.533737,129.471002 C114.590272,129.779134 114.662656,130.084105 114.750599,130.384684 C114.858814,130.776441 114.989143,131.161666 115.140951,131.538481 C115.75436,131.441812 116.361574,131.326432 116.962591,131.192342 C117.071022,131.170513 117.179453,131.145567 117.284786,131.12062 L117.334355,131.111264 L117.356041,131.105028 L117.359139,131.105028 C118.164626,130.917925 118.959787,130.702758 119.744621,130.459525 L120.875402,130.088439 Z" id="路径" fill="#D0CDE1"></path>
                <ellipse id="椭圆形" fill="#A0616A" cx="119.009487" cy="86.8892108" rx="1" ry="1.00180768"></ellipse>
                <ellipse id="椭圆形" fill="#A0616A" cx="104.329224" cy="86.8892108" rx="1" ry="1.00180768"></ellipse>
                <path d="M120.875402,130.088439 C121.058185,130.02919 121.237871,129.966822 121.414459,129.898218 C122.525948,129.495011 123.61586,129.033909 124.679781,128.51678 C124.679359,128.520209 124.680497,128.523647 124.682879,128.526135 C124.682418,128.52174 124.683516,128.517322 124.685977,128.513662 C126.544794,118.634664 128.51514,108.066507 129.140942,104.333818 L129.140942,104.327581 C129.249373,103.67896 129.31753,103.23927 129.336118,103.042812 C129.58396,100.538761 123.363119,100.538761 123.363119,100.538761 L122.371749,105.581166 L120.875402,113.199345 L120.361129,115.815658 L117.644158,129.639394 L117.557413,130.082202 L117.356041,131.105028 L117.359139,131.105028 C118.164626,130.917925 118.959787,130.702758 119.744621,130.459525 L120.875402,130.088439 Z" id="路径" fill="#D0CDE1"></path>
                <path d="M106.302269,131.853437 C103.575353,131.605089 100.886615,131.036809 98.2907667,130.160161 C98.0955909,129.402397 97.9004151,128.635278 97.7052393,127.865041 C95.285679,118.307236 93.0086279,108.19436 93.0086279,106.298391 C93.0086279,104.729851 94.096036,103.597882 95.3600316,102.812053 C96.5630437,102.104649 97.8686633,101.591178 99.2294694,101.290288 C99.2294694,101.290288 100.022565,104.611353 101.162639,109.40117 C101.772951,111.958233 102.479301,114.933159 103.213534,118.045292 L103.213534,118.048411 C104.06859,121.659484 104.96392,125.451422 105.794192,128.993891 C105.927407,129.567671 106.05959,130.133136 106.19074,130.690284 L106.19074,130.702758 C106.192624,130.706653 106.19368,130.710902 106.193838,130.715231 C106.218622,130.818125 106.243406,130.921031 106.26819,131.02395 C106.323955,131.267183 106.379719,131.507297 106.432386,131.744294 C106.444778,131.784832 106.454072,131.825371 106.463366,131.869028 C106.409415,131.866937 106.355627,131.861731 106.302269,131.853437 L106.302269,131.853437 Z" id="路径" fill="#D0CDE1"></path>
                <path d="M100.596952,108.678518 L106.195359,130.716042 C106.195359,130.716042 103.58277,111.433486 100.596952,108.678518 Z" id="路径" fill="#000000" opacity="0.2"></path>
                <path d="M122.37174,105.581166 L120.875408,113.199345 L120.361135,115.815658 L117.647262,129.639394 L117.644164,129.639394 L117.560517,130.082202 L117.557419,130.082202 L117.359145,131.105028 L117.356047,131.105028 L117.334361,131.111264 L117.284793,131.12062 L116.962598,131.182987 C116.99048,130.833729 117.024558,130.459525 117.061734,130.063492 C117.074127,129.916929 117.086519,129.767247 117.102009,129.611328 C117.684438,123.240498 118.926748,112.235768 120.875408,107.626817 C121.33391,106.541624 121.832686,105.811925 122.37174,105.581166 Z" id="路径" fill="#000000" opacity="0.2"></path>
                <ellipse id="椭圆形" fill="#A0616A" cx="111.669355" cy="87.0144383" rx="7.21572378" ry="7.26310255"></ellipse>
                <polygon id="路径" fill="#2F2E41" points="118.282661 79.6257216 112.889303 76.7820796 105.441333 77.9452318 103.900373 84.7959797 107.736352 84.6475453 108.80796 82.1307085 108.80796 84.606071 110.577864 84.5374668 111.605171 80.5303608 112.247392 84.7959797 118.539488 84.6668792"></polygon>
                <path d="M70.0267665,45.528208 C70.0267665,56.8780816 64.5951174,67.5330187 55.4350518,74.15173 C54.2020048,75.0473759 52.9114392,75.8599266 51.5718101,76.584059 C44.2336307,80.5378435 35.7383682,81.7381061 27.6023627,79.9706092 C25.8701729,79.5964936 24.1694186,79.087713 22.5153997,78.4488445 C5.98986097,72.0904876 -3.22622776,54.3218436 1.03718457,37.0387875 C5.30059689,19.7557315 21.7035749,8.39010444 39.264539,10.5510453 C56.8255031,12.7119862 70.0252693,27.7203392 70.0267665,45.528208 L70.0267665,45.528208 Z" id="路径" fill="#DAD6FF"></path>
                <ellipse id="椭圆形" fill="#FFB8B8" cx="32.8111339" cy="35.1261008" rx="8.05137363" ry="8.10423931"></ellipse>
                <path d="M29.6660649,41.3309095 C29.6660649,41.3309095 30.6724873,46.1428014 30.6724873,46.6493152 C30.6724873,47.155829 35.4529902,49.4351488 35.4529902,49.4351488 L39.7302804,48.6753766 L41.2399125,44.11674 C41.2399125,44.11674 38.723861,40.3178788 38.723861,38.7983343 L29.6660649,41.3309095 Z" id="路径" fill="#FFB8B8"></path>
                <path d="M35.0190432,80.7658369 C32.5257458,80.7671861 30.0394269,80.5006137 27.6023627,79.9706092 C27.4815396,77.4915047 27.4009908,74.7598123 27.4009908,74.7598123 L24.9473521,67.5937971 L19.8541931,52.7285253 L30.34102,44.6706562 C30.34102,44.6706562 32.9371679,48.9272318 36.7105668,47.6611734 C38.8630392,47.0036357 40.3525204,45.0289376 40.4034169,42.7653318 L52.8141196,47.1559974 L50.6702837,64.6656472 L50.5494606,65.6448155 L51.5718101,76.584059 C46.4840367,79.3378929 40.7957499,80.7749279 35.0190432,80.7658369 Z" id="路径" fill="#D0CDE1"></path>
                <path d="M25.8290046,28.5967851 C25.8290046,28.5967851 28.3852841,23.0218093 33.2848225,24.3083429 C38.184361,25.5948765 40.9536826,27.5246769 41.1666906,29.4544742 C41.3796987,31.3842715 41.0601773,34.2789736 41.0601773,34.2789736 C41.0601773,34.2789736 40.5276262,30.3121632 37.1192432,31.1698523 C33.7108603,32.0275414 28.385281,31.3842746 28.385281,31.3842746 L27.5331868,39.10347 C27.5331868,39.10347 26.5745824,37.7097268 25.5094646,38.5674221 C24.4443469,39.4251174 22.4206279,30.3121632 25.8290046,28.5967851 Z" id="路径" fill="#2F2E41"></path>
                <path d="M15.2133493,74.5851835 L16.8336183,60.83317 C16.582678,55.5132301 19.8541962,52.7285253 19.8541962,52.7285253 L23.627595,52.7285253 L26.3941346,62.0992284 L24.9473552,67.5937971 L23.1257144,74.5072243 L22.6207357,75.2681066 C22.6207357,75.2681066 23.1257144,76.0258706 22.8716761,76.281577 C22.6207357,76.534165 22.3697954,77.5476354 22.3697954,77.5476354 C22.3697954,77.5476354 22.4224619,77.9093664 22.5154028,78.4488445 C19.9373788,77.4578785 17.4860337,76.1608233 15.2133493,74.5851835 L15.2133493,74.5851835 Z" id="路径" fill="#D0CDE1"></path>
                <path d="M61.6218118,68.4326387 C59.7954153,70.5823646 57.7181698,72.5025863 55.4350487,74.15173 C55.0912821,73.5376501 54.8030388,72.8937152 54.5737967,72.2276955 L50.6702807,64.6656472 L48.0338583,59.5639932 L48.5357389,46.395115 L52.8141165,47.1559974 C52.8141165,47.1559974 55.3297157,49.6881141 56.336575,52.7285253 L58.3502936,61.843522 L61.6187138,68.4295203 L61.6218118,68.4326387 Z" id="路径" fill="#D0CDE1"></path>
                <path d="M220.078063,35.2410287 C220.084318,47.5443853 213.710229,58.9587789 203.265057,65.348895 C202.645452,65.7293362 202.013454,66.0879488 201.369064,66.4309696 C200.408675,66.9423823 199.420404,67.4101379 198.410447,67.8248811 L198.410447,67.8279995 C198.088252,67.9620894 197.766057,68.0899426 197.440764,68.2115591 C197.28896,68.2708081 197.134059,68.3300572 196.979157,68.3861878 C193.159698,69.77186 189.130309,70.4798394 185.070335,70.4786242 C182.404251,70.4806161 179.7466,70.1772218 177.148676,69.5742869 C175.799329,69.2598206 174.46995,68.8641155 173.167709,68.3893062 L173.164611,68.3893062 C171.511733,67.7866651 169.906507,67.0590489 168.362667,66.2126836 C167.959923,65.9943977 167.563376,65.7667567 167.173024,65.5297605 C166.900398,65.3676053 166.633967,65.2023316 166.367537,65.0339396 C152.153187,55.9935238 146.331179,38.058455 152.500018,22.3141565 C158.668856,6.5698581 175.086166,-2.53672722 191.604631,0.6230577 C208.123095,3.78284262 220.077109,18.3165234 220.078063,35.2410287 L220.078063,35.2410287 Z" id="路径" fill="#DAD6FF"></path>
                <path d="M181.034933,30.0969431 C181.034933,30.0969431 181.242163,35.5203131 179.998782,36.7718586 C178.755401,38.0234041 186.215695,42.4038195 186.215695,42.4038195 L190.567533,35.5203287 C190.567533,35.5203287 188.909691,32.6000527 189.324152,30.0969431 L181.034933,30.0969431 Z" id="路径" fill="#A0616A"></path>
                <ellipse id="椭圆形" fill="#A0616A" cx="184.661467" cy="25.6122337" rx="7.46029456" ry="7.50927919"></ellipse>
                <path d="M197.304447,66.4715084 C197.350918,67.0515419 197.396355,67.6315588 197.440761,68.2115591 C197.288957,68.2708081 197.134056,68.3300572 196.979154,68.3861878 C193.159695,69.77186 189.130306,70.4798394 185.070332,70.4786242 C182.404248,70.4806161 179.746597,70.1772218 177.148673,69.5742869 C175.799326,69.2598206 174.469946,68.8641155 173.167706,68.3893062 L173.164608,68.4173715 C173.161509,68.4082766 173.161509,68.3984012 173.164608,68.3893062 C173.212116,67.7532351 173.330586,67.1245657 173.517784,66.5151656 L173.517784,66.5120472 C173.691273,65.8696629 173.926723,65.1274907 174.196252,64.3073593 C174.487467,63.4310972 174.506055,61.5164178 174.444094,59.7171181 C174.437898,59.5799098 174.4348,59.4395831 174.428604,59.3054932 C174.40382,58.7223579 174.372824,58.1641696 174.341859,57.6683487 C174.270605,56.5488537 174.196252,55.7536693 174.196252,55.7536693 L169.635954,43.4454613 L180.649445,35.3501717 C181.300031,37.4737819 182.694144,37.398941 182.694144,37.398941 C188.605183,37.8074476 189.692591,33.6974354 189.726669,33.5633454 L189.726669,33.5602271 L200.306437,40.5266666 L195.956805,51.163428 C195.956805,51.163428 196.133392,52.9658461 196.384333,55.7162488 C196.421509,56.121637 196.458685,56.5488537 196.502058,56.9947807 C196.743704,59.6952895 197.03802,63.0600112 197.304447,66.4715084 Z" id="路径" fill="#D0CDE1"></path>
                <path d="M174.713629,57.7338345 L174.496767,59.3179667 L174.4441,59.7171181 L173.523986,66.4839819 L173.51779,66.5120472 L173.51779,66.5151656 L173.167713,68.3893062 L173.164615,68.4173715 C173.161515,68.4082766 173.161515,68.3984012 173.164615,68.3893062 C171.511736,67.7866651 169.90651,67.0590489 168.36267,66.2126836 C167.959926,65.9943977 167.563379,65.7667567 167.173027,65.5297605 C167.430366,64.7225378 167.734495,63.9311933 168.083848,63.159799 L168.715845,58.2078268 L168.911021,56.6922988 L174.341865,57.6683487 L174.713629,57.7338345 Z" id="路径" fill="#A0616A"></path>
                <path d="M172.642101,43.1338893 L169.637261,43.4467741 C169.637261,43.4467741 167.668572,58.1524508 168.290263,58.1524508 C168.911954,58.1524508 175.957788,59.8211781 176.165018,59.4039963 C176.372248,58.9868144 172.642101,43.1338893 172.642101,43.1338893 Z" id="路径" fill="#D0CDE1"></path>
                <path d="M178.905348,17.9147078 L177.560494,17.4224606 C177.560494,17.4224606 180.372426,14.5920686 184.284709,14.8382016 L183.184358,13.7306406 C183.184358,13.7306406 185.874041,12.746171 188.319201,15.330427 C189.604573,16.6889201 191.091766,18.2857534 192.018867,20.0845698 L193.4591,20.0845698 L192.857999,21.2946628 L194.961848,22.5047558 L192.802454,22.2874053 C193.007014,23.3321309 192.936604,24.4125394 192.59821,25.4214144 L192.109193,26.7750678 C192.109193,26.7750678 190.153051,22.8371335 190.153051,22.3448863 L190.153051,23.575495 C190.153051,23.575495 188.808197,22.4679527 188.808197,21.7295912 L188.074652,22.5910192 L187.707879,21.2373346 L183.184336,22.5910192 L183.917878,21.483477 L181.105949,21.8526577 L182.206301,20.4989731 C182.206301,20.4989731 179.0276,22.0987595 178.905317,23.4524348 C178.783035,24.80611 177.193737,26.528941 177.193737,26.528941 L176.460195,25.2983354 C176.460195,25.2983354 175.359874,19.7606085 178.905348,17.9147078 Z" id="路径" fill="#2F2E41"></path>
                <path d="M203.265051,65.348895 C202.645446,65.7293362 202.013448,66.0879488 201.369058,66.4309696 C200.408669,66.9423823 199.420398,67.4101379 198.41044,67.8248811 L198.41044,67.8279995 C198.088245,67.9620894 197.76605,68.0899426 197.440757,68.2115591 C197.288954,68.2708081 197.134053,68.3300572 196.979151,68.3861878 L197.304444,66.4715084 L195.829783,57.0384379 L195.643901,55.8565755 L196.38433,55.7162488 L203.311522,54.3971782 L203.311522,62.9508682 C203.311522,62.9508682 203.330116,63.8770242 203.265051,65.348895 Z" id="路径" fill="#A0616A"></path>
                <path d="M196.266372,40.0050224 L200.307363,40.5264982 C200.307363,40.5264982 205.177278,55.4407658 203.933897,56.0665385 C202.690516,56.6923112 194.608521,57.1094931 194.608521,57.1094931 L196.266372,40.0050224 Z" id="路径" fill="#D0CDE1"></path>
                <ellipse id="椭圆形" fill="#6C63FF" cx="57.6346521" cy="18.7102225" rx="10.2234944" ry="10.2906224"></ellipse>
                <ellipse id="椭圆形" fill="#6C63FF" cx="133.648574" cy="70.5681029" rx="10.2234944" ry="10.2906224"></ellipse>
                <ellipse id="椭圆形" fill="#6C63FF" cx="210.47417" cy="10.2940654" rx="10.2234944" ry="10.2906224"></ellipse>
            </g>
        </g>
    </g>
</svg>