<?xml version="1.0" encoding="UTF-8"?>
<svg width="234px" height="156px" viewBox="0 0 234 156" version="1.1" xmlns="http://www.w3.org/2000/svg" xmlns:xlink="http://www.w3.org/1999/xlink">
    <!-- Generator: Sketch 55.2 (78181) - https://sketchapp.com -->
    <title>编组 6</title>
    <desc>Created with Sketch.</desc>
    <g id="页面1" stroke="none" stroke-width="1" fill="none" fill-rule="evenodd">
        <g id="编组-6" transform="translate(0.000000, 1.000000)">
            <path d="M72.272368,8.12377972 C80.2143731,0.996273418 92.6741667,-0.457149518 104.018121,0.111256021 C139.645807,1.89375585 171.809691,19.2251388 199.619079,38.8276509 C209.691323,45.9227481 219.605221,53.5712928 226.141912,63.3438793 C239.447863,83.2380731 235.501602,110.798263 216.987576,127.187289 C210.693351,132.761652 203.060615,137.037159 195.215101,140.826529 C181.283191,147.557647 166.252761,152.972458 150.433079,154.513136 C139.158401,155.610059 127.74517,154.717563 116.537294,153.186857 C85.2195682,148.906364 54.4783181,139.44291 28.7051509,123.253324 C17.4032571,116.150748 6.75206337,107.323011 2.09572272,95.8302502 C-2.56061794,84.3374891 0.457838806,69.8032598 11.9972505,62.9898723 C16.769876,60.1777607 22.4752541,58.9063272 28.0618732,57.71467 C36.2834566,55.9695653 44.6386439,54.2244606 52.0610785,50.6594609 C59.7309276,46.9747969 68.8011428,39.8447976 67.2844919,31.6851865 C65.6540305,22.9347328 64.3551044,15.243807 72.272368,8.12377972 Z" id="路径" fill="#6C63FF" fill-rule="nonzero" opacity="0.1"></path>
            <g id="编组-2" transform="translate(30.868085, 0.000000)">
                <g id="编组-5">
                    <rect id="矩形" fill="#F9F9F9" fill-rule="nonzero" x="0" y="6.13861386" width="106.245148" height="65.990099"></rect>
                    <rect id="矩形" stroke="#3F3D56" x="7.81214323" y="0" width="106.245148" height="65.990099"></rect>
                    <path d="M79.0687219,47.5742574 C85.7712964,41.1466007 87.7763581,31.4799299 84.1489507,23.0817947 C80.5215432,14.6836595 71.9760216,9.20792079 62.4971458,9.20792079 L62.4971458,31.6824043 L79.0687219,47.5742574 Z" id="路径" fill="#FFFFFF" fill-rule="nonzero"></path>
                    <path d="M59.3722885,9.20792079 C48.6572988,9.20916679 39.3075963,16.3041085 36.6630827,26.4406071 C34.0185691,36.5771057 38.7527367,47.1736455 48.1617572,52.1782178 L59.3722885,32.0846381 L59.3722885,9.20792079 Z" id="路径" fill="#4A61E4" fill-rule="nonzero"></path>
                    <path d="M78.1214323,48.5047595 L61.3465379,32.2277228 L49.9977167,52.4464647 C59.2368668,57.3240459 70.6824126,55.7198849 78.1214323,48.5047595 L78.1214323,48.5047595 Z" id="路径" fill="#37329A" fill-rule="nonzero" opacity="0.512137277"></path>
                    <rect id="矩形" fill="#6C63FF" fill-rule="nonzero" x="12.4994292" y="53.7128713" width="3.12485729" height="3.06930693"></rect>
                    <rect id="矩形" fill="#37329A" fill-rule="nonzero" x="18.7491437" y="53.7128713" width="3.12485729" height="3.06930693"></rect>
                    <rect id="矩形" fill="#575A89" fill-rule="nonzero" x="24.9988583" y="53.7128713" width="3.12485729" height="3.06930693"></rect>
                    <rect id="矩形" fill="#656691" fill-rule="nonzero" x="87.4960042" y="52.1782178" width="18.7491437" height="1.53465347"></rect>
                    <rect id="矩形" fill="#656691" fill-rule="nonzero" x="87.4960042" y="55.2475248" width="18.7491437" height="1.53465347"></rect>
                    <rect id="矩形" fill="#656691" fill-rule="nonzero" x="87.4960042" y="58.3168317" width="18.7491437" height="1.53465347"></rect>
                    <rect id="矩形" fill="#FFFFFF" fill-rule="nonzero" x="34.3734302" y="89.009901" width="60.9347172" height="65.990099"></rect>
                    <rect id="矩形" stroke="#3F3D56" x="39.0607161" y="82.8712871" width="60.9347172" height="65.990099"></rect>
                    <rect id="矩形" fill="#6C63FF" fill-rule="nonzero" x="42.1855734" y="141.188119" width="3.12485729" height="3.06930693"></rect>
                    <rect id="矩形" fill="#A6A1F4" fill-rule="nonzero" x="48.435288" y="141.188119" width="3.12485729" height="3.06930693"></rect>
                    <rect id="矩形" fill="#37329A" fill-rule="nonzero" x="53.1225739" y="141.188119" width="3.12485729" height="3.06930693"></rect>
                    <rect id="矩形" fill="#3F3D56" fill-rule="nonzero" x="79.6838609" y="144.257426" width="12.4994292" height="1.53465347"></rect>
                    <rect id="矩形" fill="#3F3D56" fill-rule="nonzero" x="79.6838609" y="144.257426" width="12.4994292" height="1.53465347"></rect>
                    <rect id="矩形" fill="#3F3D56" fill-rule="nonzero" x="79.6838609" y="145.792079" width="12.4994292" height="1.53465347"></rect>
                    <path d="M70.3092891,93.6138614 L70.3092891,99.0077364 C76.9445027,99.0077329 82.926372,102.950259 85.4655591,108.99692 C88.0047463,115.04358 86.6012013,122.003588 81.9093955,126.631501 L85.7760911,130.445545 C92.0318289,124.274995 93.9032211,114.994987 90.5176402,106.932775 C87.1320594,98.8705626 79.1562379,93.6138614 70.3092891,93.6138614 L70.3092891,93.6138614 Z" id="路径" fill="#37329A" fill-rule="nonzero"></path>
                    <path d="M85.8321191,129.752829 L81.8328201,125.709571 C75.8335995,131.77599 66.3235378,132.427878 59.5692595,127.235675 L56.1459748,131.789505 C65.1530696,138.710478 77.8324598,137.840584 85.8321191,129.752829 Z" id="路径" fill="#A6A1F4" fill-rule="nonzero"></path>
                    <path d="M53.9048177,114.974145 C53.9048177,106.126426 61.2493497,98.9539323 70.3092891,98.9539323 L70.3092891,93.6138614 C60.9202743,93.6138614 52.5786011,99.4655417 49.5812004,108.154829 C46.5837997,116.844115 49.5994269,126.432238 57.0746836,131.980198 L60.3843577,127.727378 C56.2991699,124.701355 53.9011143,119.981428 53.9048177,114.974145 L53.9048177,114.974145 Z" id="路径" fill="#6C63FF" fill-rule="nonzero"></path>
                    <rect id="矩形" fill="#F9F9F9" fill-rule="nonzero" x="124.994292" y="56.7821782" width="60.9347172" height="65.990099"></rect>
                    <g id="编组-9" transform="translate(140.618578, 72.128713)" fill-rule="nonzero">
                        <rect id="矩形" fill="#A6A1F4" x="4.46408184" y="0" width="4.46408184" height="4.38472419"></rect>
                        <rect id="矩形" fill="#4A61E4" x="16.0706946" y="0" width="4.46408184" height="4.38472419"></rect>
                        <rect id="矩形" fill="#FFFFFF" x="28.5701238" y="0" width="4.46408184" height="4.38472419"></rect>
                        <rect id="矩形" fill="#A6A1F4" x="0" y="10.523338" width="37.4982875" height="6.13861386"></rect>
                        <rect id="矩形" fill="#4A61E4" x="0" y="21.0466761" width="37.4982875" height="6.13861386"></rect>
                        <rect id="矩形" fill="#FFFFFF" x="0" y="30.6930693" width="37.4982875" height="6.13861386"></rect>
                        <rect id="矩形" fill="#000000" opacity="0.15" x="0" y="10.523338" width="16.0706946" height="6.13861386"></rect>
                        <rect id="矩形" fill="#000000" opacity="0.15" x="0" y="21.0466761" width="5.35689821" height="6.13861386"></rect>
                        <rect id="矩形" fill="#4A61E4" opacity="0.125397945" x="0" y="30.6930693" width="24.9988583" height="6.13861386"></rect>
                    </g>
                    <rect id="矩形" stroke="#3F3D56" x="131.244006" y="50.6435644" width="60.9347172" height="65.990099"></rect>
                    <rect id="矩形" fill="#656691" fill-rule="nonzero" x="140.618578" y="61.3861386" width="37.4982875" height="1.53465347"></rect>
                    <rect id="矩形" fill="#656691" fill-rule="nonzero" x="140.618578" y="64.4554455" width="37.4982875" height="1.53465347"></rect>
                    <rect id="矩形" fill="#656691" fill-rule="nonzero" x="140.618578" y="65.990099" width="37.4982875" height="1.53465347"></rect>
                </g>
            </g>
        </g>
    </g>
</svg>